<?xml version="1.0" encoding="iso-8859-1"?>
<!-- Generator: Adobe Illustrator 19.0.0, SVG Export Plug-In . SVG Version: 6.00 Build 0)  -->
<svg version="1.1" id="Layer_1" xmlns="http://www.w3.org/2000/svg" xmlns:xlink="http://www.w3.org/1999/xlink" x="0px" y="0px"
	 viewBox="0 0 426.667 426.667" style="enable-background:new 0 0 426.667 426.667;" xml:space="preserve">
<g>
	<g>
		<g>
			<path d="M92.821,92.821c31.424-31.573,74.176-50.155,120.512-50.155C307.435,42.667,384,119.232,384,213.333h42.667
				C426.667,95.68,330.965,0,213.333,0c-57.92,0-111.381,23.232-150.656,62.677L21.333,21.333v128h128L92.821,92.821z"/>
			<path d="M333.845,333.845C302.421,365.419,259.691,384,213.333,384c-94.101,0-170.667-76.565-170.667-170.667H0
				c0,117.653,95.701,213.333,213.333,213.333c57.941,0,111.381-23.232,150.677-62.677l41.323,41.344v-128h-128L333.845,333.845z"/>
		</g>
	</g>
</g>
<g>
</g>
<g>
</g>
<g>
</g>
<g>
</g>
<g>
</g>
<g>
</g>
<g>
</g>
<g>
</g>
<g>
</g>
<g>
</g>
<g>
</g>
<g>
</g>
<g>
</g>
<g>
</g>
<g>
</g>
</svg>
