<?xml version="1.0" encoding="iso-8859-1"?>
<!-- Generator: Adobe Illustrator 19.0.0, SVG Export Plug-In . SVG Version: 6.00 Build 0)  -->
<svg version="1.1" id="Capa_1" xmlns="http://www.w3.org/2000/svg" xmlns:xlink="http://www.w3.org/1999/xlink" x="0px" y="0px"
	 viewBox="0 0 480 480" style="enable-background:new 0 0 480 480;" xml:space="preserve">
<g>
	<g>
		<path d="M479.456,265.059c-0.091-0.225-0.195-0.444-0.312-0.656c-0.113-0.291-0.243-0.574-0.392-0.848l-61.68-96
			c-1.477-2.296-4.022-3.68-6.752-3.672H368v-112c0-4.418-3.582-8-8-8H8c-4.418,0-8,3.582-8,8v304c0,4.418,3.582,8,8,8h42.4
			c-8.957,29.602,7.779,60.861,37.381,69.818s60.861-7.779,69.819-37.381c3.2-10.576,3.2-21.861,0-32.437h180.8
			c-8.836,29.602,7.998,60.762,37.6,69.598c29.602,8.836,60.762-7.998,69.598-37.6c0.782-2.619,1.371-5.292,1.762-7.998H472
			c4.418,0,8-3.582,8-8v-112v-0.112C479.979,266.843,479.794,265.925,479.456,265.059z M368,179.883h37.952l51.4,80H368V179.883z
			 M16,59.883h336v240H16V59.883z M104,419.883c-22.08-0.026-39.974-17.92-40-40c-0.018-7.058,1.864-13.991,5.448-20.072
			c2.094-3.637,4.769-6.907,7.92-9.68c7.295-6.607,16.79-10.26,26.632-10.248c14.302,0.018,27.507,7.671,34.632,20.072
			c3.563,6.033,5.419,12.921,5.368,19.928C143.974,401.964,126.08,419.857,104,419.883z M347.24,346.459
			c-0.368,0.488-0.84,0.928-1.192,1.424H149.912c-0.28-0.4-0.616-0.752-0.904-1.144c-0.6-0.8-1.232-1.6-1.872-2.4
			c-0.864-1.048-1.752-2.064-2.68-3.048c-0.696-0.728-1.416-1.432-2.144-2.12c-0.984-0.928-1.992-1.8-3.032-2.648
			c-0.8-0.632-1.6-1.256-2.4-1.84c-1.088-0.8-2.208-1.528-3.352-2.24c-0.84-0.528-1.672-1.056-2.536-1.536
			c-1.2-0.656-2.4-1.24-3.672-1.808c-0.88-0.408-1.744-0.8-2.64-1.192c-1.32-0.528-2.68-0.96-4-1.384
			c-0.872-0.28-1.728-0.592-2.624-0.8c-1.52-0.4-3.08-0.672-4.64-0.936c-0.76-0.136-1.512-0.328-2.28-0.424
			c-16.14-2.139-32.404,2.935-44.464,13.872c-1.975,1.8-3.824,3.732-5.536,5.784c-0.512,0.608-0.984,1.232-1.464,1.856
			c-0.48,0.624-1.104,1.312-1.6,2.008H16v-32h336v24.896c-0.592,0.592-1.024,1.272-1.6,1.888
			C349.28,343.907,348.216,345.155,347.24,346.459z M392,419.883c-22.08-0.026-39.974-17.92-40-40
			c-0.018-7.058,1.864-13.991,5.448-20.072c2.094-3.637,4.769-6.907,7.92-9.68c7.295-6.607,16.79-10.26,26.632-10.248
			c14.302,0.018,27.507,7.671,34.632,20.072c3.563,6.033,5.419,12.921,5.368,19.928C431.974,401.964,414.08,419.857,392,419.883z
			 M464,371.883h-16.568c-0.305-2.051-0.724-4.084-1.256-6.088c-0.136-0.512-0.304-1-0.448-1.504l-0.128-0.408H464V371.883z
			 M464,347.883h-26.224c-0.496-0.712-0.928-1.48-1.456-2.168c-1.048-1.36-2.224-2.6-3.384-3.848
			c-0.496-0.536-0.936-1.128-1.448-1.6c-1.388-1.351-2.846-2.627-4.368-3.824c-0.384-0.312-0.72-0.672-1.112-0.968
			c-1.685-1.268-3.44-2.44-5.256-3.512c-0.272-0.16-0.504-0.36-0.8-0.512c-1.837-1.048-3.733-1.989-5.68-2.816
			c-0.28-0.12-0.536-0.288-0.8-0.408c-1.985-0.81-4.015-1.505-6.08-2.08c-0.272-0.08-0.528-0.2-0.8-0.28
			c-2.168-0.588-4.369-1.048-6.592-1.376c-0.192,0-0.376-0.088-0.568-0.112c-2.463-0.332-4.946-0.498-7.432-0.496
			c-1.929,0.01-3.857,0.117-5.776,0.32c-0.592,0.064-1.184,0.168-1.776,0.248c-1.32,0.184-2.632,0.392-3.936,0.664
			c-0.656,0.144-1.312,0.296-1.96,0.464c-1.256,0.304-2.488,0.664-3.72,1.056c-0.608,0.2-1.216,0.392-1.816,0.608
			c-1.36,0.496-2.688,1.048-4,1.648c-0.328,0.152-0.68,0.256-1.008,0.416v-53.424H464V347.883z"/>
	</g>
</g>
<g>
	<g>
		<path d="M104,355.883c-13.255,0-24,10.745-24,24s10.745,24,24,24s24-10.745,24-24S117.255,355.883,104,355.883z M104,387.883
			c-4.418,0-8-3.582-8-8s3.582-8,8-8s8,3.582,8,8S108.418,387.883,104,387.883z"/>
	</g>
</g>
<g>
	<g>
		<path d="M392,355.883c-13.255,0-24,10.745-24,24s10.745,24,24,24s24-10.745,24-24S405.255,355.883,392,355.883z M392,387.883
			c-4.418,0-8-3.582-8-8s3.582-8,8-8s8,3.582,8,8S396.418,387.883,392,387.883z"/>
	</g>
</g>
<g>
</g>
<g>
</g>
<g>
</g>
<g>
</g>
<g>
</g>
<g>
</g>
<g>
</g>
<g>
</g>
<g>
</g>
<g>
</g>
<g>
</g>
<g>
</g>
<g>
</g>
<g>
</g>
<g>
</g>
</svg>
