<svg xmlns="http://www.w3.org/2000/svg" width="18" height="12" viewBox="0 0 18 12">
  <metadata><?xpacket begin="﻿" id="W5M0MpCehiHzreSzNTczkc9d"?>
<x:xmpmeta xmlns:x="adobe:ns:meta/" x:xmptk="Adobe XMP Core 5.6-c138 79.159824, 2016/09/14-01:09:01        ">
   <rdf:RDF xmlns:rdf="http://www.w3.org/1999/02/22-rdf-syntax-ns#">
      <rdf:Description rdf:about=""/>
   </rdf:RDF>
</x:xmpmeta>
                                                                                                    
                                                                                                    
                                                                                                    
                                                                                                    
                                                                                                    
                                                                                                    
                                                                                                    
                                                                                                    
                                                                                                    
                                                                                                    
                                                                                                    
                                                                                                    
                                                                                                    
                                                                                                    
                                                                                                    
                                                                                                    
                                                                                                    
                                                                                                    
                                                                                                    
                                                                                                    
                           
<?xpacket end="w"?></metadata>
<defs>
    <style>
      .cls-1 {
        fill-rule: evenodd;
      }
    </style>
  </defs>
  <path id="Forma_1" data-name="Forma 1" class="cls-1" d="M1210.57,10642.3a1.645,1.645,0,0,1-.19-0.1l-3.34-2.9a0.276,0.276,0,0,1-.02-0.4,0.318,0.318,0,0,1,.41,0l3.34,2.9a0.276,0.276,0,0,1,.02.4A2.346,2.346,0,0,1,1210.57,10642.3Zm-11.14,0a2.346,2.346,0,0,1-.22-0.1,0.276,0.276,0,0,1,.02-0.4l3.34-2.9a0.318,0.318,0,0,1,.41,0,0.276,0.276,0,0,1-.02.4l-3.34,2.9A1.645,1.645,0,0,1,1199.43,10642.3Zm13.12,2.7h-15.1a1.409,1.409,0,0,1-1.45-1.4v-9.2a1.409,1.409,0,0,1,1.45-1.4h15.1a1.409,1.409,0,0,1,1.45,1.4v9.2A1.409,1.409,0,0,1,1212.55,10645Zm-15.1-11.5a0.884,0.884,0,0,0-.87.9v9.2a0.884,0.884,0,0,0,.87.9h15.1a0.884,0.884,0,0,0,.87-0.9v-9.2a0.884,0.884,0,0,0-.87-0.9h-15.1Zm7.55,6.9a2.028,2.028,0,0,1-1.07-.4l-7.45-6.1a0.285,0.285,0,0,1-.03-0.4,0.318,0.318,0,0,1,.41,0l7.46,6.1a1.14,1.14,0,0,0,1.36,0l7.45-6.1a0.318,0.318,0,0,1,.41,0,0.285,0.285,0,0,1-.03.4l-7.44,6.1A2.028,2.028,0,0,1,1205,10640.4Z" transform="translate(-1196 -10633)"/>
</svg>
