<svg xmlns="http://www.w3.org/2000/svg" width="17" height="17" viewBox="0 0 17 17">
  <metadata><?xpacket begin="﻿" id="W5M0MpCehiHzreSzNTczkc9d"?>
<x:xmpmeta xmlns:x="adobe:ns:meta/" x:xmptk="Adobe XMP Core 5.6-c138 79.159824, 2016/09/14-01:09:01        ">
   <rdf:RDF xmlns:rdf="http://www.w3.org/1999/02/22-rdf-syntax-ns#">
      <rdf:Description rdf:about=""/>
   </rdf:RDF>
</x:xmpmeta>
                                                                                                    
                                                                                                    
                                                                                                    
                                                                                                    
                                                                                                    
                                                                                                    
                                                                                                    
                                                                                                    
                                                                                                    
                                                                                                    
                                                                                                    
                                                                                                    
                                                                                                    
                                                                                                    
                                                                                                    
                                                                                                    
                                                                                                    
                                                                                                    
                                                                                                    
                                                                                                    
                           
<?xpacket end="w"?></metadata>
<defs>
    <style>
      .cls-1 {
        fill-rule: evenodd;
      }
    </style>
  </defs>
  <path id="Forma_1" data-name="Forma 1" class="cls-1" d="M872.9,10089a1.027,1.027,0,0,0-.394-0.7l-3.275-2.5a1.694,1.694,0,0,0-1.916-.2l-0.6.4a0.991,0.991,0,0,1-1.157-.1,25.348,25.348,0,0,1-1.909-1.7c-0.69-.7-1.272-1.4-1.638-1.8a1.117,1.117,0,0,1-.074-1.2l0.349-.6a1.685,1.685,0,0,0-.129-1.9l-2.532-3.3a1,1,0,0,0-.7-0.4,1.9,1.9,0,0,0-.772.2c-0.556.5-1.27,1.1-1.518,1.3a2.906,2.906,0,0,0-.718,2.2c0,1.3,2.232,5.8,4.921,8.4,2.585,2.7,7.108,4.9,8.326,4.9a2.865,2.865,0,0,0,2.2-.7c0.269-.3.935-1.1,1.307-1.5A1.175,1.175,0,0,0,872.9,10089Zm-0.754.3c-0.622.8-1.082,1.3-1.264,1.5a2.051,2.051,0,0,1-1.723.5c-0.933,0-5.318-2.1-7.845-4.7-2.628-2.5-4.722-6.9-4.722-7.9a2.233,2.233,0,0,1,.519-1.7,17.762,17.762,0,0,1,1.471-1.2,0.221,0.221,0,0,1,.224-0.1h0.039a0.231,0.231,0,0,1,.24.1l2.532,3.3a1.1,1.1,0,0,1,.078,1.2l-0.348.6a1.707,1.707,0,0,0,.123,1.9,18,18,0,0,0,1.7,1.9,13.884,13.884,0,0,0,1.975,1.7,1.685,1.685,0,0,0,1.911.2h0l0.6-.4a1,1,0,0,1,1.161.1l3.274,2.5a0.618,0.618,0,0,1,.135.3C872.232,10089.2,872.2,10089.3,872.142,10089.3Zm-4.44-13a6.628,6.628,0,0,1,3.862,3.9,0.384,0.384,0,0,0,.32.2H872a0.343,0.343,0,0,0,.2-0.4,7.087,7.087,0,0,0-4.267-4.3,0.3,0.3,0,0,0-.436.2A0.275,0.275,0,0,0,867.7,10076.3Zm-0.93,2.6a3.853,3.853,0,0,1,2.235,2.2,0.346,0.346,0,0,0,.321.3c0.038,0,.077,0,0.115-0.1a0.276,0.276,0,0,0,.205-0.4,4.321,4.321,0,0,0-2.645-2.6,0.3,0.3,0,0,0-.436.2A0.346,0.346,0,0,0,866.772,10078.9Zm-0.93,2.6a0.952,0.952,0,0,1,.61.6,0.384,0.384,0,0,0,.32.2h0.115a0.424,0.424,0,0,0,.206-0.5,1.969,1.969,0,0,0-1.022-1,0.3,0.3,0,0,0-.435.2A0.424,0.424,0,0,0,865.842,10081.5Z" transform="translate(-855.906 -10075)"/>
</svg>
