<svg xmlns="http://www.w3.org/2000/svg" width="16" height="21" viewBox="0 0 16 21">
  <metadata><?xpacket begin="﻿" id="W5M0MpCehiHzreSzNTczkc9d"?>
<x:xmpmeta xmlns:x="adobe:ns:meta/" x:xmptk="Adobe XMP Core 5.6-c138 79.159824, 2016/09/14-01:09:01        ">
   <rdf:RDF xmlns:rdf="http://www.w3.org/1999/02/22-rdf-syntax-ns#">
      <rdf:Description rdf:about=""/>
   </rdf:RDF>
</x:xmpmeta>
                                                                                                    
                                                                                                    
                                                                                                    
                                                                                                    
                                                                                                    
                                                                                                    
                                                                                                    
                                                                                                    
                                                                                                    
                                                                                                    
                                                                                                    
                                                                                                    
                                                                                                    
                                                                                                    
                                                                                                    
                                                                                                    
                                                                                                    
                                                                                                    
                                                                                                    
                                                                                                    
                           
<?xpacket end="w"?></metadata>
<defs>
    <style>
      .cls-1 {
        fill-rule: evenodd;
      }
    </style>
  </defs>
  <path id="Forma_1" data-name="Forma 1" class="cls-1" d="M854.87,6245l-8.889-8.75a0.453,0.453,0,0,0-.484-0.09,0.441,0.441,0,0,0-.275.4v12.12a0.444,0.444,0,0,0,.717.34l2.257-1.73,1.97,3.48a0.439,0.439,0,0,0,.389.23,0.476,0.476,0,0,0,.2-0.05l2.667-1.31a0.44,0.44,0,0,0,.226-0.26,0.429,0.429,0,0,0-.036-0.34l-1.856-3.29h2.8a0.452,0.452,0,0,0,.411-0.27A0.44,0.44,0,0,0,854.87,6245Zm-3.869-.12a0.45,0.45,0,0,0-.384.21,0.443,0.443,0,0,0-.006.44l2,3.53-1.872.92-2.015-3.57a0.425,0.425,0,0,0-.3-0.21,0.274,0.274,0,0,0-.089-0.01,0.45,0.45,0,0,0-.274.09l-1.948,1.5v-10.16l7.372,7.26H851ZM845.666,6230a0.444,0.444,0,0,0-.444.44v2.62a0.445,0.445,0,0,0,.889,0v-2.62A0.444,0.444,0,0,0,845.666,6230Zm-3.555,6.12h-2.667a0.44,0.44,0,1,0,0,.88h2.667A0.44,0.44,0,1,0,842.111,6236.12Zm9.777,0h-2.666a0.44,0.44,0,1,0,0,.88h2.666A0.44,0.44,0,1,0,851.888,6236.12Zm-8.421-2.34-1.887-1.86a0.45,0.45,0,0,0-.628,0,0.435,0.435,0,0,0,0,.62l1.886,1.86a0.472,0.472,0,0,0,.629,0A0.435,0.435,0,0,0,843.467,6233.78Zm0,4.95a0.452,0.452,0,0,0-.629,0l-1.886,1.85a0.44,0.44,0,0,0,.315.75,0.427,0.427,0,0,0,.313-0.13l1.887-1.85A0.435,0.435,0,0,0,843.467,6238.73Zm6.914-6.81a0.452,0.452,0,0,0-.629,0l-1.886,1.86a0.433,0.433,0,0,0,0,.62,0.472,0.472,0,0,0,.629,0l1.886-1.86A0.435,0.435,0,0,0,850.381,6231.92Z" transform="translate(-839 -6230)"/>
</svg>
