<svg xmlns="http://www.w3.org/2000/svg" width="17" height="17" viewBox="0 0 17 17">
  <metadata><?xpacket begin="﻿" id="W5M0MpCehiHzreSzNTczkc9d"?>
<x:xmpmeta xmlns:x="adobe:ns:meta/" x:xmptk="Adobe XMP Core 5.6-c138 79.159824, 2016/09/14-01:09:01        ">
   <rdf:RDF xmlns:rdf="http://www.w3.org/1999/02/22-rdf-syntax-ns#">
      <rdf:Description rdf:about=""/>
   </rdf:RDF>
</x:xmpmeta>
                                                                                                    
                                                                                                    
                                                                                                    
                                                                                                    
                                                                                                    
                                                                                                    
                                                                                                    
                                                                                                    
                                                                                                    
                                                                                                    
                                                                                                    
                                                                                                    
                                                                                                    
                                                                                                    
                                                                                                    
                                                                                                    
                                                                                                    
                                                                                                    
                                                                                                    
                                                                                                    
                           
<?xpacket end="w"?></metadata>
<defs>
    <style>
      .cls-1 {
        fill-rule: evenodd;
      }
    </style>
  </defs>
  <path id="Forma_1" data-name="Forma 1" class="cls-1" d="M647.987,10082.5a8.5,8.5,0,1,0-16.993,0,8.6,8.6,0,0,0,2.758,6.3h-0.008l0.275,0.2h0.056a1.521,1.521,0,0,0,.452.4c0.05,0,.1.1,0.151,0.1,0.165,0.1.335,0.2,0.508,0.3,0.037,0,.075.1,0.113,0.1,0.19,0.1.383,0.2,0.581,0.3h0.044a13.275,13.275,0,0,0,2.055.7h0.057a1.617,1.617,0,0,1,.679.1h1.548a1.592,1.592,0,0,1,.673-0.1h0.058a12.96,12.96,0,0,0,2.026-.7h0.071c0.19-.1.377-0.2,0.559-0.3a0.126,0.126,0,0,0,.136-0.1c0.166-.1.33-0.2,0.489-0.3,0.057,0,.113-0.1.169-0.1q0.2-.15.4-0.3c0.029,0,.06,0,0.088-0.1l0.283-.2h-0.008A8.568,8.568,0,0,0,647.987,10082.5Zm-16.375,0a7.879,7.879,0,1,1,15.757,0,8.042,8.042,0,0,1-2.653,5.9c-0.091-.1-0.183-0.1-0.276-0.2l-2.616-1.3a0.607,0.607,0,0,1-.381-0.6v-0.9c0.061-.1.125-0.2,0.191-0.3a5.7,5.7,0,0,0,.808-1.5,1.2,1.2,0,0,0,.644-1.1v-1.1a1.176,1.176,0,0,0-.274-0.7v-1.4a2.386,2.386,0,0,0-.582-1.8,4.252,4.252,0,0,0-5.479,0,2.386,2.386,0,0,0-.582,1.8v1.4a1.182,1.182,0,0,0-.274.7v1.1a1.077,1.077,0,0,0,.414.9,6.336,6.336,0,0,0,.956,2v0.9a0.721,0.721,0,0,1-.359.6l-2.443,1.3c-0.078.1-.155,0.1-0.233,0.2A8.084,8.084,0,0,1,631.612,10082.5Zm12.5,6.4c-0.109.1-.218,0.1-0.33,0.2-0.051,0-.1.1-0.155,0.1-0.145.1-.294,0.2-0.445,0.3h-0.1c-0.348.2-.708,0.3-1.077,0.5h-0.04a1.4,1.4,0,0,0-.588.2h0a1.3,1.3,0,0,0-.607.1h-0.6c-0.034.1-.068,0.1-0.1,0.1h-1.164c-0.034,0-.067,0-0.1-0.1H638.2c-0.409-.1-0.811-0.2-1.2-0.3h-0.037q-0.291-.15-0.575-0.3h0a1.124,1.124,0,0,1-.527-0.2h-0.068c-0.158-.1-0.312-0.2-0.464-0.3-0.045,0-.09-0.1-0.135-0.1q-0.21-.15-0.413-0.3h-0.012l2.443-1.4a1.179,1.179,0,0,0,.682-1.1v-1.1l-0.071-.1a4.922,4.922,0,0,1-.927-1.9l-0.028-.2h-0.105a0.608,0.608,0,0,1-.238-0.5v-1.1a0.427,0.427,0,0,1,.172-0.3l0.1-.1v-1.8h0a1.776,1.776,0,0,1,.432-1.3,3.626,3.626,0,0,1,4.544,0,1.71,1.71,0,0,1,.437,1.3l0,1.8,0.1,0.1a0.427,0.427,0,0,1,.172.3v1.1a0.425,0.425,0,0,1-.365.5l-0.153.1-0.05.1a5.982,5.982,0,0,1-.771,1.6c-0.081.1-.16,0.2-0.227,0.3l-0.077.1v1.1a1.438,1.438,0,0,0,.723,1.2l2.616,1.3h0.049C644.18,10088.8,644.146,10088.9,644.113,10088.9Z" transform="translate(-631 -10074)"/>
</svg>
